<svg aria-hidden="true" style="position:absolute;width:0;height:0;overflow:hidden" xmlns="http://www.w3.org/2000/svg"><defs><symbol id="icon-charm_menu-hamburger" viewBox="0 0 47 32"><path stroke-linejoin="round" stroke-linecap="round" stroke-width="4.364" d="M1.96 29.154h42.965M1.96 15.615h42.965M1.96 2.077h42.965"/></symbol><symbol id="icon-charm_menu-hamburger2" viewBox="0 0 47 32"><path stroke-linejoin="round" stroke-linecap="round" stroke-width="4.364" d="M1.891 29.091H44.8M1.891 15.564H44.8M1.891 2.036H44.8"/></symbol><symbol id="icon-charm_menu-hamburger3" viewBox="0 0 47 32"><path d="M44.945 31.273H1.89c-1.164 0-2.182-1.018-2.182-2.182s1.018-2.182 2.182-2.182h42.909c1.164 0 2.182 1.018 2.182 2.182s-.873 2.182-2.036 2.182zm0-13.528H1.89c-1.164 0-2.182-1.018-2.182-2.182s1.018-2.182 2.182-2.182h42.909c1.164 0 2.182 1.018 2.182 2.182s-.873 2.182-2.036 2.182zm0-13.527H1.89C.726 4.218-.292 3.2-.292 2.036S.726-.146 1.89-.146h42.909c1.164 0 2.182 1.018 2.182 2.182s-.873 2.182-2.036 2.182z"/></symbol></defs></svg>